<svg xmlns="http://www.w3.org/2000/svg" width="24" height="24" viewBox="0 0 24 24" fill="none" stroke="white" stroke-width="2" stroke-linecap="round" stroke-linejoin="round">
  <path d="M19 5c-1.5 0-2.8 1.1-3 2.5l-1.7-0.8c-0.4-0.2-0.9-0.2-1.3 0L12 7.5c-0.2-1.4-1.5-2.5-3-2.5s-2.8 1.1-3 2.5L4.3 6.7c-0.4-0.2-0.9-0.2-1.3 0L1.5 7.5C1.1 7.7 1 8.1 1.2 8.5s0.8 0.6 1.2 0.4l1.5-0.8C4.2 9.4 5.5 10.5 7 10.5s2.8-1.1 3-2.5l1.7 0.8c0.4 0.2 0.9 0.2 1.3 0L14 7.5c0.2 1.4 1.5 2.5 3 2.5s2.8-1.1 3-2.5l1.7 0.8c0.4 0.2 0.9 0.2 1.3 0l1.5-0.8c0.4-0.2 0.6-0.8 0.4-1.2S23.9 5.7 23.5 5.9L22 6.7C21.8 5.1 20.5 5 19 5z"/>
  <circle cx="9" cy="16" r="2"/>
  <circle cx="15" cy="16" r="2"/>
  <path d="M9 14v-4"/>
  <path d="M15 14v-4"/>
</svg>
